<svg width="120" height="120" viewBox="0 0 120 120" fill="none" xmlns="http://www.w3.org/2000/svg">
<path d="M16 0.5H119.5V104C119.5 112.56 112.56 119.5 104 119.5H0.5V16C0.5 7.43959 7.43959 0.5 16 0.5Z" fill="white" stroke="white"/>
<g clip-path="url(#clip0_16_2)">
<path d="M105.264 56.8447L100.43 38.2031C98.3203 30.4688 91.2891 24.8438 83.5547 24.8438H81.0938V17.8125C81.0938 13.9299 77.9451 10.7812 74.0625 10.7812H45.9375C42.0549 10.7812 38.9062 13.9299 38.9062 17.8125V24.8438H36.4453C28.7109 24.8438 21.6797 30.4688 19.5703 38.2031L14.7363 56.8447C8.45435 58.251 3.75 63.8386 3.75 70.5469V81.0938C3.75 86.2859 6.59546 90.7705 10.7812 93.2051V102.188C10.7812 106.07 13.9299 109.219 17.8125 109.219H24.8438C28.7263 109.219 31.875 106.07 31.875 102.188V95.1562H88.125V102.188C88.125 106.07 91.2737 109.219 95.1562 109.219H102.188C106.07 109.219 109.219 106.07 109.219 102.188V93.2051C113.405 90.7683 116.25 86.2837 116.25 81.0938V70.5469C116.25 63.8386 111.546 58.251 105.264 56.8447ZM24.8438 81.0938C20.9612 81.0938 17.8125 77.9451 17.8125 74.0625C17.8125 70.1799 20.9612 67.0312 24.8438 67.0312C28.7263 67.0312 31.875 70.1799 31.875 74.0625C31.875 77.9451 28.7263 81.0938 24.8438 81.0938ZM29.3591 56.4844L33.1384 41.9033C33.6284 40.1104 35.2456 38.9062 36.4475 38.9062H83.5569C84.7588 38.9062 86.376 40.1104 86.8198 41.7319L90.6409 56.4844H29.3591ZM95.1562 81.0938C91.2737 81.0938 88.125 77.9451 88.125 74.0625C88.125 70.1799 91.2737 67.0312 95.1562 67.0312C99.0388 67.0312 102.188 70.1799 102.188 74.0625C102.188 77.9451 99.0388 81.0938 95.1562 81.0938Z" fill="#040404"/>
<path d="M61.1392 54H59.6733C59.5994 54 59.5355 53.9744 59.4815 53.9233C59.4276 53.8722 59.4006 53.8068 59.4006 53.7273V50.9148H56.946C56.8722 50.9148 56.8082 50.8892 56.7543 50.8381C56.7003 50.7869 56.6733 50.7216 56.6733 50.642V49.7642C56.6733 49.6903 56.7003 49.6264 56.7543 49.5724C56.8082 49.5185 56.8722 49.4915 56.946 49.4915H59.4006V48.767H56.946C56.8722 48.767 56.8082 48.7415 56.7543 48.6903C56.7003 48.6392 56.6733 48.5739 56.6733 48.4943V47.608C56.6733 47.5341 56.7003 47.4702 56.7543 47.4162C56.8082 47.3622 56.8722 47.3352 56.946 47.3352H58.7699L56.0341 42.4091C55.9886 42.3182 55.9886 42.2273 56.0341 42.1364C56.0909 42.0455 56.1705 42 56.2727 42H57.9261C58.0341 42 58.1165 42.0511 58.1733 42.1534L60.0057 45.7756C60.1136 45.9915 60.2727 46.3466 60.483 46.8409C60.5398 46.7045 60.6264 46.5114 60.7429 46.2614C60.8594 46.0114 60.9375 45.8381 60.9773 45.7415L62.6051 42.1619C62.6506 42.054 62.733 42 62.8523 42H64.4801C64.5767 42 64.6534 42.0455 64.7102 42.1364C64.7614 42.2159 64.7642 42.304 64.7188 42.4006L62.0511 47.3352H63.8835C63.9574 47.3352 64.0213 47.3622 64.0753 47.4162C64.1293 47.4702 64.1562 47.5341 64.1562 47.608V48.4943C64.1562 48.5739 64.1293 48.6392 64.0753 48.6903C64.0213 48.7415 63.9574 48.767 63.8835 48.767H61.4119V49.4915H63.8835C63.9574 49.4915 64.0213 49.5185 64.0753 49.5724C64.1293 49.6264 64.1562 49.6903 64.1562 49.7642V50.642C64.1562 50.7216 64.1293 50.7869 64.0753 50.8381C64.0213 50.8892 63.9574 50.9148 63.8835 50.9148H61.4119V53.7273C61.4119 53.8011 61.3849 53.8651 61.331 53.919C61.277 53.973 61.2131 54 61.1392 54Z" fill="#040404"/>
</g>
<defs>
<clipPath id="clip0_16_2">
<rect width="112.5" height="112.5" fill="white" transform="translate(3.75 3.75)"/>
</clipPath>
</defs>
</svg>
